<?xml version="1.0" encoding="utf-8"?>
<!-- Generator: Adobe Illustrator 26.0.3, SVG Export Plug-In . SVG Version: 6.00 Build 0)  -->
<svg version="1.1" id="Layer_1" xmlns="http://www.w3.org/2000/svg" xmlns:xlink="http://www.w3.org/1999/xlink" x="0px" y="0px"
	 viewBox="0 0 776.8 776.6" style="enable-background:new 0 0 776.8 776.6;" xml:space="preserve">
<style type="text/css">
	.st0{fill-rule:evenodd;clip-rule:evenodd;fill:#E30333;}
</style>
<path class="st0" d="M388.5,711.8C567.1,711.8,712,567,712,388.3S567.1,64.8,388.5,64.8S65,209.6,65,388.3S209.8,711.8,388.5,711.8z
	 M290.7,534.9h-75.9c-18,0-27,0-32.4-3.5c-5.8-3.8-9.5-10.1-9.9-17c-0.4-6.4,4.1-14.2,13-29.8l0,0l166.2-291.1
	c9-15.8,13.6-23.8,19.3-26.7c6.2-3.2,13.6-3.2,19.8,0c5.8,2.9,10.3,10.9,19.4,26.7l38.3,66.9l0,0c6.6,11.5,9.9,17.3,11.3,23.3
	c1.6,6.6,1.6,13.5,0,20.1c-1.4,6.1-4.7,11.8-11.3,23.4L349.2,501c-6.7,11.7-10,17.5-14.6,21.9c-5,4.8-11,8.3-17.6,10.2
	C310.9,534.9,304.2,534.9,290.7,534.9z M561.5,534.9h-88c-18.2,0-27.2,0-32.6-3.5c-5.8-3.8-9.5-10.2-9.8-17.1
	c-0.3-6.4,4.2-14.3,13.4-30l43.9-75.4c9-15.5,13.5-23.2,19.2-26.1c6.2-3.1,13.5-3.1,19.6,0c5.7,2.9,10.2,10.6,19.3,26.1l0,0
	l44.1,75.4c9.2,15.7,13.8,23.5,13.4,30c-0.3,7-4,13.3-9.8,17.1C588.8,534.9,579.7,534.9,561.5,534.9z"/>
</svg>
